# xmcd
#
# Track frame offsets:
#	150
#	12627
#	28090
#	44715
#	64252
#	84842
#	98300
#	115907
#	133747
#	150305
#
# Disc length: 2267 seconds
#
# Revision: 5
# Processed by: cddbd v1.4PL0 Copyright (c) Steve Scherf et al.
# Submitted via: audiograbber 1.82.01
#
DISCID=7908d90a
DTITLE=Trisha Yearwood - Hearts In Armor
DYEAR=1992
DGENRE=Country
TTITLE0=Wrong Side Of Memphis
TTITLE1=Nearest Distant Shore
TTITLE2=You Say You Will
TTITLE3=Walkaway Joe
TTITLE4=Woman Walk The Line
TTITLE5=Oh Lonesome You
TTITLE6=Down On My Knees
TTITLE7=For Reasons I've Forgotten
TTITLE8=You Don't Have To Move That Mountain
TTITLE9=Hearts In Armor
EXTD=YEAR: 1992
EXTT0=
EXTT1=
EXTT2=
EXTT3=
EXTT4=
EXTT5=
EXTT6=
EXTT7=
EXTT8=
EXTT9=
PLAYORDER=
